<svg xmlns="http://www.w3.org/2000/svg"  viewBox="0 0 50 50" width="50px" height="50px"><path d="M 25 9 C 14.959 9 13.459938 15.370969 13.460938 19.167969 C 13.460938 20.663969 13.272484 21.355469 13.271484 21.355469 C 12.722484 22.757469 12.288344 23.864328 8.7773438 31.236328 C 8.3193438 32.194328 7.6912656 33.507344 8.1972656 34.777344 C 8.6392656 35.886344 9.8215469 36.796594 11.810547 37.558594 C 12.851086 37.957626 15.751504 38.738788 17.660156 38.9375 L 18.052734 39.724609 C 18.054052 39.72723 18.057237 39.727881 18.058594 39.730469 C 18.059873 39.732932 18.059224 39.735834 18.060547 39.738281 C 18.090681 39.794046 18.140632 39.831429 18.1875 39.871094 C 18.207236 39.887641 18.220351 39.914542 18.242188 39.927734 C 18.242188 39.927734 18.244141 39.929688 18.244141 39.929688 C 18.320016 39.975062 18.408 40 18.5 40 L 31.5 40 C 31.592 40 31.681938 39.973109 31.757812 39.927734 C 31.757812 39.927734 31.759766 39.927734 31.759766 39.927734 C 31.776841 39.917391 31.784937 39.895231 31.800781 39.882812 C 31.853232 39.841336 31.906602 39.799075 31.939453 39.738281 C 31.941088 39.735256 31.939838 39.731565 31.941406 39.728516 C 31.94277 39.725927 31.94594 39.725278 31.947266 39.722656 L 32.339844 38.935547 C 34.2518 38.736106 37.152717 37.954741 38.191406 37.556641 C 40.180406 36.795641 41.362687 35.886344 41.804688 34.777344 C 42.310688 33.507344 41.682609 32.193328 41.224609 31.236328 C 37.713609 23.864328 37.278469 22.755281 36.730469 21.363281 C 36.728469 21.356281 36.541016 20.665969 36.541016 19.167969 C 36.541016 15.370969 35.041 9 25 9 z M 24.5 10.017578 L 24.5 21.828125 C 22.200189 20.257144 17.985535 19.545272 15.408203 20.019531 C 15.022033 20.090721 14.705091 20.197145 14.417969 20.318359 C 14.44189 19.994053 14.458984 19.620789 14.458984 19.167969 C 14.458984 15.070025 16.232236 10.211652 24.5 10.017578 z M 25.5 10.017578 C 33.767764 10.211651 35.541016 15.069052 35.541016 19.166016 C 35.541016 19.618552 35.559591 19.992586 35.583984 20.318359 C 35.29686 20.197145 34.979585 20.090721 34.59375 20.019531 C 32.017457 19.544194 27.799561 20.258611 25.5 21.830078 L 25.5 10.017578 z M 34.21875 20.980469 C 34.279895 20.989877 34.353084 20.991101 34.412109 21.001953 C 35.157109 21.139953 35.671109 21.395547 35.787109 21.685547 C 35.788934 21.690116 35.79298 21.692781 35.794922 21.697266 C 35.795605 21.699303 35.798228 21.717028 35.798828 21.71875 C 36.354828 23.13975 36.794312 24.260063 40.320312 31.664062 C 40.713313 32.486063 41.219 33.54325 40.875 34.40625 C 40.546 35.23025 39.522031 35.976047 37.832031 36.623047 C 36.970636 36.952979 34.659595 37.579467 32.882812 37.851562 L 34.947266 33.722656 C 35.070266 33.475656 34.971609 33.176734 34.724609 33.052734 C 34.476609 32.930734 34.176734 33.028391 34.052734 33.275391 L 31.443359 38.494141 L 25.419922 29.226562 C 25.327922 29.084563 25.164 29.013672 25 29.013672 C 24.837 29.013672 24.672078 29.084563 24.580078 29.226562 L 18.556641 38.494141 L 15.947266 33.277344 C 15.823266 33.030344 15.523391 32.929734 15.275391 33.052734 C 15.028391 33.176734 14.928734 33.477609 15.052734 33.724609 L 17.117188 37.853516 C 15.342748 37.581893 13.031697 36.955699 12.167969 36.625 C 10.477969 35.977 9.454 35.232203 9.125 34.408203 C 8.781 33.544203 9.2866875 32.489969 9.6796875 31.667969 C 13.164163 24.351163 13.633806 23.169785 14.208984 21.695312 C 14.210536 21.69169 14.21337 21.689224 14.214844 21.685547 C 14.329844 21.395547 14.844844 21.139953 15.589844 21.001953 C 15.648239 20.991154 15.720783 20.991803 15.78125 20.982422 C 15.935879 22.7133 16.928001 25 19.482422 25 C 21.342464 25 22.465703 23.335012 22.699219 21.998047 C 23.502376 22.345907 24.189513 22.757995 24.632812 23.238281 C 24.726812 23.341281 24.86 23.400391 25 23.400391 C 25.14 23.400391 25.273141 23.341281 25.369141 23.238281 C 25.81214 22.758319 26.498249 22.345507 27.300781 21.998047 C 27.534297 23.335012 28.657536 25 30.517578 25 C 33.072977 25 34.064711 22.711578 34.21875 20.980469 z M 25 30.417969 L 30.578125 39 L 19.421875 39 L 25 30.417969 z"/></svg>