<svg xmlns="http://www.w3.org/2000/svg"  viewBox="0 0 50 50" width="100px" height="100px"><path d="M 25 2 C 12.309295 2 2 12.309295 2 25 C 2 37.690705 12.309295 48 25 48 C 37.690705 48 48 37.690705 48 25 C 48 12.309295 37.690705 2 25 2 z M 25 4 C 36.609824 4 46 13.390176 46 25 C 46 36.609824 36.609824 46 25 46 C 13.390176 46 4 36.609824 4 25 C 4 13.390176 13.390176 4 25 4 z M 25 7 C 15.059 7 7 15.059 7 25 C 7 34.941 15.059 43 25 43 C 34.941 43 43 34.941 43 25 C 43 15.059 34.941 7 25 7 z M 26.007812 13 L 28.794922 13 L 28.109375 15 L 29.164062 15 L 29.849609 13 L 32.730469 13 L 31.927734 15.453125 C 35.483734 15.791125 40.92075 17.496078 36.09375 26.080078 C 33.40675 30.859078 28.923297 33.050625 24.779297 34.015625 L 24.029297 36 L 21.242188 36 L 21.910156 34 L 20.855469 34 L 20.1875 36 L 17.306641 36 L 17.75 34.96875 L 17.744141 34.96875 L 18.136719 34.015625 L 15.203125 34.005859 L 20.470703 21 L 25.744141 21 L 22.25 30.595703 C 22.25 30.595703 26.039328 30.7595 29.236328 27.5625 C 32.341328 24.4585 33.621938 19 28.710938 19 L 15 19 L 17.076172 15 L 25.236328 15 L 26.007812 13 z"/></svg>