<svg xmlns="http://www.w3.org/2000/svg"  viewBox="0 0 50 50" width="50px" height="50px"><path d="M 25 6 C 19.458 6 13.916016 9.9589844 13.916016 9.9589844 C 13.916016 9.9589844 13.124031 13.125969 12.332031 18.667969 L 11 20 L 11 28 L 12.332031 28.957031 L 15.5 39.25 C 15.5 39.25 19.458 44 25 44 C 30.542 44 34.5 39.25 34.5 39.25 L 37.667969 28.957031 L 39 28 L 39 20 L 37.667969 18.667969 C 36.875969 13.125969 36.082031 9.9570312 36.082031 9.9570312 C 36.082031 9.9570312 30.542 6 25 6 z M 21 10 L 21.615234 18.710938 C 21.615234 18.710938 23.433 19.111328 25 19.111328 C 26.567 19.111328 28.384766 18.710938 28.384766 18.710938 L 29 10 C 32.615 10.729 34 13 34 13 L 35 22 L 36 26 L 31 34 L 32 39 L 30 41 L 27 40 L 23 40 L 20 41 L 18 39 L 19 34 L 14 26 L 15 22 L 16 13 C 16 13 17.385 10.729 21 10 z M 17.082031 25 C 17.082031 25 16.376016 25.661031 16.291016 26.582031 C 17.080016 27.494031 19.357031 28.957031 21.832031 28.957031 C 22.271031 28.517031 22.625 27.687031 22.625 26.582031 C 19.039 25.912031 17.082031 25 17.082031 25 z M 32.917969 25 C 32.917969 25 30.96 25.912031 27.375 26.582031 C 27.375 27.687031 27.728969 28.517031 28.167969 28.957031 C 30.643969 28.957031 32.919984 27.494031 33.708984 26.582031 C 33.623984 25.661031 32.917969 25 32.917969 25 z"/></svg>