<svg xmlns="http://www.w3.org/2000/svg"  viewBox="0 0 50 50" width="50px" height="50px"><path d="M 15.912109 5.9101562 C 13.434109 5.9101563 12.609375 14.171875 12.609375 14.171875 C 12.609375 14.171875 18.696 15.123047 25 15.123047 C 31.304 15.123047 37.390625 14.171875 37.390625 14.171875 C 37.390625 14.171875 36.565891 5.9101562 34.087891 5.9101562 C 29.969891 5.9101563 28.884 6.7363281 25 6.7363281 C 21.116 6.7363281 20.005109 5.9101562 15.912109 5.9101562 z M 7.4785156 16.490234 C 7.0946562 16.558484 6.7692344 16.850406 6.6777344 17.253906 C 6.5547344 17.791906 6.8906875 18.326219 7.4296875 18.449219 C 7.5696055 18.481508 9.2565551 18.852266 12 19.236328 L 12 22 L 12 22.972656 C 11.492 22.985656 9 23.118828 9 26.548828 C 9 28.965828 10.563797 30.173406 11.591797 30.566406 C 12.012492 31.971789 14.222634 38.510252 19.404297 41.496094 C 20.67466 43.22612 23.618263 44 25 44 C 26.381737 44 29.32534 43.22612 30.595703 41.496094 C 35.777366 38.510252 37.987508 31.971789 38.408203 30.566406 C 39.436203 30.173406 41 28.965828 41 26.548828 C 41 23.117828 38.508 22.984656 38 22.972656 L 38 22 L 38 19.236328 C 40.743445 18.852266 42.430394 18.481508 42.570312 18.449219 C 43.109313 18.326219 43.445266 17.792906 43.322266 17.253906 C 43.200266 16.715906 42.666 16.376 42.125 16.5 C 42.054 16.516 34.875 18.126953 25 18.126953 C 15.125 18.126953 7.946 16.517 7.875 16.5 C 7.74025 16.469 7.6064688 16.467484 7.4785156 16.490234 z M 13 19.369141 C 16.055248 19.759601 20.174262 20.128906 25 20.128906 C 29.825738 20.128906 33.944752 19.759601 37 19.369141 L 37 22.140625 C 34.999987 22.41108 30.08096 23 25 23 C 19.91904 23 15.000013 22.41108 13 22.140625 L 13 19.369141 z M 12.011719 24.001953 C 14.923897 24.01916 14.503273 30 18.078125 30 L 20.285156 30 C 24.281156 30 23.104 25.746094 25 25.746094 C 26.896 25.746094 25.719844 30 29.714844 30 L 31.921875 30 C 35.496727 30 35.076103 24.01916 37.988281 24.001953 C 38.86262 24.047523 40 24.497119 40 26.548828 C 40 29.098828 37.589844 29.767578 37.589844 29.767578 C 37.589844 29.767578 35.822031 36.347986 31.195312 39.853516 C 31.203457 39.677449 31.201997 39.496903 31.177734 39.308594 C 30.971734 37.712594 30.787609 36.201797 30.599609 35.091797 C 30.249609 33.026797 27.48 32 25 32 C 22.52 32 19.750391 33.026797 19.400391 35.091797 C 19.212391 36.200797 19.028266 37.712594 18.822266 39.308594 C 18.798003 39.496903 18.796543 39.677449 18.804688 39.853516 C 14.177969 36.347986 12.410156 29.767578 12.410156 29.767578 C 12.410156 29.767578 10 29.098828 10 26.548828 C 10 24.497119 11.13738 24.047523 12.011719 24.001953 z M 25 34.707031 C 26.749 35.652031 28.199219 35.527281 28.199219 36.863281 L 28.199219 38.400391 C 28.199219 39.866391 26.599609 40.352531 26.599609 39.894531 L 26.599609 39.041016 C 26.599609 38.065016 25.927 37.601562 25 37.601562 C 24.073 37.601562 23.400391 38.065016 23.400391 39.041016 L 23.400391 39.894531 C 23.400391 40.352531 21.800781 39.866391 21.800781 38.400391 L 21.800781 36.863281 C 21.800781 35.527281 23.251 35.652031 25 34.707031 z"/></svg>